<svg width="1318" height="1208" viewBox="0 0 1318 1208" fill="none" xmlns="http://www.w3.org/2000/svg">
<path d="M659 253L1318 1208H0L659 253Z" fill="white" class="h-light-beam" />
<rect x="646" y="192" width="26" height="16" fill="#939393"/>
<rect x="636" y="246" width="46" height="52" rx="23" fill="white"/>
<rect width="2" height="182" transform="matrix(-1 0 0 1 660 0)" fill="#939393"/>
<path d="M652 187C652 183.134 655.134 180 659 180V180C662.866 180 666 183.134 666 187V194H652V187Z" fill="#939393"/>
<path d="M634 218C634 211.373 639.373 206 646 206H672C678.627 206 684 211.373 684 218V218H634V218Z" fill="#939393"/>
<path d="M634 218H684V218C685.291 223.164 688.379 227.699 692.71 230.793L700 236H618L625.29 230.793C629.621 227.699 632.709 223.164 634 218V218Z" fill="#939393"/>
<path d="M590 270C590 250.118 606.118 234 626 234H692C711.882 234 728 250.118 728 270V270C728 270 685.958 272 659 272C632.042 272 590 270 590 270V270Z" fill="#939393"/>
<path fill-rule="evenodd" clip-rule="evenodd" d="M643.6 206.24L646 206C647 207 650 208 654 208C652 210 651 213.8 651 217C651 221 651 227.333 649 232C647.854 234.674 645.395 236.91 642.681 239.378C638.291 243.369 633.236 247.966 632 256C630.579 265.238 631.986 270.183 632.689 271.581C610.908 270.995 590 270 590 270C590 252.115 603.042 237.276 620.134 234.475L625.29 230.793C629.621 227.699 632.709 223.164 634 218C634 212.194 638.123 207.352 643.6 206.24Z" fill="white"/>
<rect x="646" y="192" width="12" height="16" fill="white"/>
<path d="M652 186C652 182.686 654.686 180 658 180V180V192H652V186Z" fill="white"/>
</svg>
