<?xml version="1.0" encoding="UTF-8"?><svg id="Layer_2" xmlns="http://www.w3.org/2000/svg" xmlns:xlink="http://www.w3.org/1999/xlink" viewBox="0 0 255.85 169.02"><defs><style>.cls-1{fill:none;}.cls-2{clip-path:url(#clippath);}.cls-3,.cls-4{fill:#fff;}.cls-5{fill:#4a4a4b;}.cls-6{fill:#4c4a4b;}.cls-4{stroke:#4c4a4b;stroke-miterlimit:10;stroke-width:4px;}.cls-7{isolation:isolate;}</style><clipPath id="clippath"><polygon class="cls-1" points="0 162.35 7.01 8.57 255.85 0 248.83 153.78 0 162.35"/></clipPath></defs><g id="Layer_1-2"><g><path class="cls-4" d="M3.92,120.89c-1.72,23.18,12.63,46.16,62.76,46.13,.53,0,1.06-.03,1.59-.05,11.44-.45,22.77-2.78,32.84-6.78,7.18-2.85,15.22-4.44,23.22-4.76,8.77-.35,17.47,.84,24.89,3.6,9.92,3.68,21.5,5.48,33.5,5.19,.55-.01,1.1-.03,1.64-.05,17.02-.67,40.29-5.53,51.16-15.84,12.99-12.33,12.08-26.09,12.99-37.3"/><g class="cls-7"><g class="cls-2"><g><path class="cls-3" d="M133.57,31.47c-6.36,.22-12.45,1.21-17.95,2.81-6.91,2.2-13.97,5.72-20.28,11.24-2.08,2.2-3.59,4.57-4.42,7.05,2.34-3.3,5.74-6.34,10.08-8.92,8.23-4.91,19.23-7.8,31.03-8.21,.35-.01,.7-.02,1.05-.03,18.82-.4,33.91,4.45,40.68,12.16-1.61-3.74-4.96-7.13-9.85-9.87-7.59-4.27-17.99-6.48-29.29-6.25-.35,0-.69,.02-1.04,.03"/><path class="cls-3" d="M171.52,128.49l-4.6,4.37,5.99,1.63-1.39-6m-92.55,1.48s-.08,0-.12,0c-3.16,.17-5.68,2.72-5.62,5.69,.05,2.93,2.59,5.18,5.7,5.07,.04,0,.08,0,.12,0,3.16-.17,5.67-2.71,5.62-5.68-.05-2.93-2.59-5.18-5.7-5.07m111.06,16.79l1.07-2.7-3.35-1.83,4.89-.49,2.4-2.49,1.95,2.4,4.82,.29-3.69,1.98,.6,2.67-4.23-1.18-4.47,1.36m-142.66,3l1.06-2.7-3.34-1.83,4.89-.49,2.39-2.49,1.95,2.4,4.83,.29-3.69,1.98,.59,2.67-4.23-1.18-4.46,1.36m28.4-7.17c-3.82,.13-6.96-.86-8.29-2.98-.71-1.14-.71-2.41-.1-3.63,.67-1.37,2.2-3.31,5.61-4.93,3.22-1.53,6.36-2.26,9.17-2.36,2.44-.08,4.62,.31,6.39,1.08,3.81,1.66,2.58,6.07,.45,7.86-2.13,1.78-4.69,3.82-10.67,4.72-.88,.13-1.73,.21-2.55,.24m86.22-6.99l7.97-8.3-2.15-.54,.36-1.34,11.6,2.6-.33,1.44-1.96-.57,4.1,13.54-10.29-3.24,.28-1.52,1.53,.53,.16-1.78-7.71-2.15-1.72,1.63,1.54,.42-.38,1.13-5.47-1,.12-1.31,2.35,.46m-13.75-2.09c2.42-.08,3.9-1.04,4.19-1.32,.32-.3,.89-7.25,.89-7.25l-2.38-.19,.43-1.66,9.67,1.21-.14,1.49-1.86-.21-.58,6.5s-.13,2.13-5.32,2.9c-.7,.1-1.47,.17-2.27,.2-5.09,.18-11.53-1.18-12.26-3.55-.08-.26-.21-.51-.18-.79,.11-1.27,2.03-2.34,4.31-2.42,.03,0,.07,0,.1,0,2.32-.04,4.1,.96,3.99,2.24-.07,.81-.87,1.53-2.03,1.97,0,0,.2,.82,2.92,.87,.18,0,.35,0,.52,0m-37.16-8.5l.13-1.41,7.41-.93-.12,1.36-2.33,.37s-.59,6.6-.68,7.67c-.1,1.07-1.45,2.23-3.08,2.87-1.42,.55-6.85,1.67-10.59,1.8-.58,.02-1.11,.02-1.59-.02-3.58-.24-3.64-2.08-3.64-2.08l.66-7.43-2.73,.54,.13-1.46,10.62-1.97-.13,1.46-2.25,.47-.61,6.83c-.04,.43,.2,.84,.74,1.12,.85,.45,2.08,.62,3.4,.58,1.41-.05,2.93-.34,4.21-.8,2.92-1.04,2.49-2.1,2.49-2.1l.64-7.16-2.67,.3m14.13,7.62l.78-8.62-2.03,.04,.15-1.65,10.7-.22-.15,1.65-2.32,.05-.77,8.62,2.32-.05-.16,1.65-10.69,.22,.15-1.65,2.02-.04m82.69-18.7l1.07-2.7-3.35-1.83,4.89-.5,2.4-2.49,1.95,2.4,4.82,.29-3.69,1.97,.6,2.67-4.23-1.18-4.47,1.36m-171.69,3.61l1.06-2.7-3.34-1.83,4.89-.49,2.39-2.49,1.96,2.4,4.82,.29-3.69,1.98,.59,2.67-4.23-1.18-4.46,1.36m91.2-6.92c-.17,0-.34,.01-.51,.01-11.29,.24-19.99-4.65-19.43-10.91,.55-6.17,9.88-11.38,20.95-11.76,.17,0,.34-.01,.51-.01,11.28-.24,19.98,4.65,19.42,10.91-.55,6.17-9.87,11.38-20.94,11.76m62.85-6.86c-.17,0-.33,.01-.5,.01-4.12,.09-7.89-.52-10.98-1.61,5.77-2.14,9.78-5.71,10.14-9.69,.35-3.98-3.03-7.39-8.45-9.3,3.18-1.18,6.89-1.93,10.82-2.06,.17,0,.33-.01,.5-.01,11.29-.23,19.98,4.65,19.43,10.92-.56,6.17-9.89,11.38-20.96,11.76m-122.88,2.58c-.17,0-.33,.01-.5,.01-11.29,.23-19.99-4.65-19.43-10.92,.56-6.17,9.89-11.38,20.96-11.76,.17,0,.33-.01,.5-.01,4.11-.08,7.88,.52,10.98,1.61-5.77,2.14-9.78,5.71-10.14,9.69-.35,3.98,3.03,7.39,8.45,9.3-3.19,1.18-6.89,1.93-10.82,2.06m125.81-37.67l1.07-2.7-3.35-1.83,4.9-.5,2.39-2.49,1.95,2.4,4.83,.29-3.69,1.97,.59,2.67-4.23-1.18-4.47,1.36m-132.69,2.79l1.06-2.7-3.34-1.83,4.89-.5,2.39-2.49,1.96,2.4,4.82,.29-3.69,1.97,.6,2.67-4.24-1.18-4.46,1.36m70.9,9.11c-.39,.01-.76,.02-1.15,.03-25.52,.54-45.25-10.55-43.98-24.71,.61-6.86,6-13.41,15.17-18.44,8.9-4.88,20.31-7.76,32.25-8.17,.38-.01,.76-.02,1.14-.03,12.36-.26,23.75,2.17,32.05,6.83,8.31,4.67,12.55,11.01,11.93,17.87-.61,6.86-6,13.41-15.17,18.44-8.89,4.87-20.3,7.77-32.24,8.18m4.74-74.23c-.72,.02-1.45,.18-2.05,.48-8.92,4.33-33.87,17.56-72.74,46.69C1.55,98.3,5.93,122.83,5.98,123.07l.02,.09v.09c-1.7,18.96,24.71,33.8,58.89,33.09,.5-.01,1-.02,1.49-.04,10.75-.37,21.4-2.27,30.85-5.53,7.92-2.74,16.61-4.26,25.25-4.55,9.45-.33,18.81,.82,26.98,3.46,9.32,3.01,20.19,4.47,31.46,4.24,.52-.01,1.04-.03,1.55-.04,15.98-.55,31.27-4.42,43.16-10.95,12.29-6.74,19.5-15.51,20.33-24.7l.04-.19c.09-.24,8.88-25.06-43.1-67.51C169.12,22.92,146.43,10.69,138.25,6.72c-.59-.29-1.36-.42-2.14-.39"/><path class="cls-6" d="M115.62,34.28c5.5-1.59,11.59-2.59,17.95-2.81,.35-.01,.69-.02,1.04-.03,11.3-.24,21.7,1.98,29.29,6.25,4.89,2.75,8.24,6.13,9.85,9.87,2.79,3.18,4.16,6.84,3.8,10.83l-3.9,.08c-1.98,4.61-6.35,8.91-12.72,12.4-8.12,4.45-18.54,7.1-29.45,7.47-.35,.01-.71,.02-1.07,.03h0c-19.46,.41-35.23-6.58-39.25-16.42l-3.92,.09c.29-3.3,1.55-6.5,3.66-9.48,.83-2.48,2.35-4.85,4.42-7.05,4.51-4.78,11.67-8.74,20.28-11.24m18.05-5.02c-11.94,.41-23.36,3.3-32.25,8.17-9.17,5.03-14.56,11.59-15.17,18.44-1.26,14.16,18.46,25.24,43.98,24.71,.39,0,.76-.02,1.15-.03,11.95-.41,23.35-3.3,32.24-8.18,9.17-5.03,14.56-11.59,15.17-18.44,.62-6.86-3.62-13.2-11.93-17.87-8.31-4.66-19.69-7.09-32.05-6.83-.38,0-.76,.02-1.14,.03m-67.29,127.04c-.5,.02-1,.03-1.49,.04-34.17,.71-60.59-14.13-58.9-33.09v-.18c-.06-.25-4.44-24.78,55.33-69.58C100.19,24.37,125.14,11.14,134.06,6.8c.6-.29,1.33-.45,2.05-.48,.78-.03,1.55,.1,2.14,.39,8.18,3.97,30.86,16.2,64.65,43.8,51.98,42.46,43.19,67.27,43.1,67.51l-.04,.19c-.82,9.19-8.04,17.96-20.33,24.7-11.9,6.53-27.18,10.4-43.16,10.95-.52,.02-1.03,.03-1.55,.04-11.27,.23-22.15-1.23-31.46-4.24-8.17-2.64-17.53-3.78-26.98-3.46-8.63,.3-17.33,1.82-25.25,4.55-9.45,3.26-20.1,5.16-30.85,5.53M136.21,4.12c-1.63,.06-3.27,.42-4.63,1.07-9.03,4.39-34.28,17.76-73.4,47.09C-1.48,97,1.62,121.45,2,123.43c-1.72,20.14,26.38,35.89,62.69,35.13,.53-.01,1.06-.03,1.59-.04,11.44-.39,22.77-2.42,32.84-5.89,7.18-2.48,15.22-3.86,23.22-4.14,8.77-.3,17.47,.73,24.89,3.13,9.92,3.2,21.5,4.76,33.5,4.51,.55,0,1.1-.03,1.64-.05,17.02-.59,33.29-4.7,45.95-11.65,13.03-7.15,20.71-16.45,21.62-26.19,.72-2,8.21-26.67-43.67-69.05C172.25,21.38,149.31,9.02,141.03,5c-1.34-.65-3.07-.94-4.81-.88"/><path class="cls-5" d="M78.93,140.72c-3.11,.11-5.65-2.14-5.7-5.07-.05-2.97,2.46-5.51,5.62-5.69,.04,0,.08,0,.12,0,3.11-.11,5.65,2.14,5.7,5.07,.05,2.97-2.47,5.51-5.62,5.68-.04,0-.08,0-.12,0m3.21-12.04c-2.81,.1-5.96,.83-9.17,2.36-3.41,1.62-4.93,3.56-5.61,4.93-.6,1.22-.61,2.48,.1,3.63,1.33,2.12,4.47,3.11,8.29,2.98,.82-.03,1.68-.11,2.55-.24,5.98-.91,8.54-2.94,10.67-4.72,2.13-1.78,3.36-6.2-.45-7.86-1.77-.77-3.95-1.16-6.39-1.08"/><path class="cls-5" d="M118.61,122.66l-7.41,.93-.13,1.41,2.67-.3-.64,7.16s.43,1.05-2.49,2.1c-1.28,.46-2.79,.75-4.21,.8-1.32,.05-2.55-.12-3.4-.58-.53-.28-.78-.69-.74-1.12l.61-6.83,2.25-.47,.13-1.46-10.62,1.97-.13,1.46,2.73-.54-.66,7.43s.07,1.84,3.64,2.08c.48,.03,1.01,.04,1.59,.02,3.74-.13,9.16-1.24,10.59-1.8,1.63-.64,2.98-1.81,3.08-2.87,.09-1.07,.68-7.67,.68-7.67l2.33-.37,.12-1.36"/><polyline class="cls-5" points="124.09 122.39 123.94 124.04 125.97 124 125.19 132.62 123.17 132.66 123.03 134.31 133.72 134.09 133.87 132.44 131.55 132.49 132.32 123.86 134.64 123.81 134.79 122.16 124.09 122.39"/><path class="cls-5" d="M151.36,123.09l-.43,1.66,2.38,.19s-.57,6.95-.89,7.25c-.29,.28-1.78,1.23-4.19,1.32-.17,0-.34,0-.52,0-2.72-.05-2.92-.87-2.92-.87,1.16-.44,1.95-1.16,2.03-1.97,.11-1.29-1.67-2.29-3.99-2.24-.03,0-.07,0-.1,0-2.28,.08-4.2,1.15-4.31,2.42-.03,.28,.1,.54,.18,.79,.73,2.36,7.17,3.72,12.26,3.55,.8-.03,1.56-.09,2.27-.2,5.19-.77,5.32-2.9,5.32-2.9l.58-6.5,1.86,.21,.14-1.49-9.67-1.21"/><path class="cls-5" d="M172.91,134.49l-5.99-1.63,4.6-4.37,1.39,6m-4.75-9.07l-.36,1.34,2.15,.54-7.97,8.3-2.35-.46-.12,1.31,5.47,1,.38-1.13-1.54-.42,1.72-1.63,7.71,2.15-.16,1.78-1.53-.53-.28,1.52,10.29,3.24-4.1-13.54,1.96,.57,.33-1.44-11.6-2.6"/><path class="cls-5" d="M128.39,87.96c-11.07,.38-20.4,5.59-20.95,11.76-.56,6.26,8.14,11.15,19.43,10.91,.17,0,.34,0,.51-.01,11.07-.38,20.39-5.59,20.94-11.76,.56-6.27-8.14-11.15-19.42-10.91-.17,0-.34,0-.51,.01"/><path class="cls-5" d="M68.39,83.67c-11.08,.38-20.41,5.59-20.96,11.76-.56,6.27,8.14,11.15,19.43,10.92,.17,0,.33,0,.5-.01,3.94-.14,7.64-.88,10.82-2.06-5.41-1.91-8.8-5.32-8.45-9.3,.36-3.98,4.37-7.55,10.14-9.69-3.11-1.09-6.87-1.7-10.98-1.61-.17,0-.33,0-.5,.01"/><path class="cls-5" d="M191.27,81.09c-3.94,.14-7.65,.88-10.82,2.06,5.41,1.91,8.8,5.32,8.45,9.3-.36,3.98-4.37,7.55-10.14,9.69,3.1,1.1,6.86,1.7,10.98,1.61,.17,0,.33,0,.5-.01,11.08-.38,20.41-5.59,20.96-11.76,.55-6.27-8.14-11.15-19.43-10.92-.17,0-.33,0-.5,.01"/><polyline class="cls-5" points="198.19 61.15 195.8 63.64 190.89 64.13 194.25 65.96 193.17 68.66 197.64 67.31 201.87 68.48 201.28 65.81 204.97 63.84 200.14 63.55 198.19 61.15"/><polyline class="cls-5" points="65.49 63.93 63.1 66.42 58.2 66.92 61.55 68.75 60.48 71.45 64.94 70.09 69.18 71.27 68.58 68.6 72.27 66.62 67.45 66.33 65.49 63.93"/><polyline class="cls-5" points="41.2 110.01 38.81 112.5 33.91 112.99 37.26 114.83 36.19 117.53 40.65 116.17 44.88 117.34 44.29 114.68 47.98 112.7 43.16 112.41 41.2 110.01"/><polyline class="cls-5" points="212.89 106.4 210.49 108.9 205.6 109.39 208.95 111.22 207.88 113.92 212.34 112.57 216.58 113.74 215.98 111.07 219.67 109.1 214.85 108.81 212.89 106.4"/><polyline class="cls-5" points="52.36 142.23 49.97 144.72 45.08 145.21 48.42 147.04 47.36 149.75 51.82 148.39 56.05 149.56 55.46 146.89 59.15 144.92 54.32 144.63 52.36 142.23"/><path class="cls-6" d="M132.03,35.43c-11.8,.41-22.81,3.3-31.03,8.21-4.33,2.59-7.73,5.62-10.08,8.92-2.11,2.98-3.37,6.18-3.66,9.48l3.92-.09h.07c.57-6.39,5.03-12.39,12.56-16.89,7.43-4.44,17.35-7.06,28.06-7.43,.34-.01,.68-.02,1.02-.03,24.31-.51,41.8,8.46,40.7,20.87h.08l3.9-.08c.36-3.99-1.02-7.65-3.8-10.83-6.77-7.72-21.85-12.56-40.68-12.16-.35,0-.7,.02-1.05,.03"/><polyline class="cls-5" points="195.04 139.23 192.64 141.72 187.75 142.22 191.1 144.05 190.02 146.75 194.49 145.39 198.72 146.57 198.13 143.9 201.81 141.92 196.99 141.63 195.04 139.23"/></g></g></g></g></g></svg>