<svg width="5528" height="657" viewBox="0 0 5528 657" fill="none" xmlns="http://www.w3.org/2000/svg">
<rect x="343.5" y="447.944" width="88" height="8" fill="#939393"/>
<rect x="295.5" y="456.5" width="304" height="12" fill="#4A4A4B"/>
<rect x="439.5" y="456.5" width="159" height="4" fill="#939393"/>
<rect x="595.5" y="456.5" width="4" height="12" fill="#939393"/>
<rect x="303.5" y="468.5" width="8" height="188" fill="#4A4A4B"/>
<rect x="583.5" y="468.5" width="8" height="188" fill="#4A4A4B"/>
<rect x="431.5" y="451.71" width="88" height="4" transform="rotate(-60 431.5 451.71)" fill="#939393"/>
<rect x="589.5" y="468.5" width="2" height="181.971" fill="#939393"/>
<rect x="309.5" y="468.5" width="2" height="181.971" fill="#939393"/>
<path d="M5.31936e-06 450.131L0 1L475.468 375.921L431.468 452.132L5.31936e-06 450.131Z" fill="white"/>
<rect x="959.5" y="447.944" width="88" height="8" fill="#939393"/>
<rect x="911.5" y="456.5" width="304" height="12" fill="#4A4A4B"/>
<rect x="1055.5" y="456.5" width="159" height="4" fill="#939393"/>
<rect x="1211.5" y="456.5" width="4" height="12" fill="#939393"/>
<rect x="919.5" y="468.5" width="8" height="188" fill="#4A4A4B"/>
<rect x="1199.5" y="468.5" width="8" height="188" fill="#4A4A4B"/>
<rect x="1047.5" y="451.71" width="88" height="4" transform="rotate(-60 1047.5 451.71)" fill="#939393"/>
<rect x="1205.5" y="468.5" width="2" height="181.971" fill="#939393"/>
<rect x="925.5" y="468.5" width="2" height="181.971" fill="#939393"/>
<path d="M616 450.131L616 1L1091.47 375.921L1047.47 452.132L616 450.131Z" fill="white"/>
<rect x="959.5" y="448" width="88" height="4" fill="#939393"/>
<rect x="1575.5" y="447.944" width="88" height="8" fill="#939393"/>
<rect x="1527.5" y="456.5" width="304" height="12" fill="#4A4A4B"/>
<rect x="1671.5" y="456.5" width="159" height="4" fill="#939393"/>
<rect x="1827.5" y="456.5" width="4" height="12" fill="#939393"/>
<rect x="1535.5" y="468.5" width="8" height="188" fill="#4A4A4B"/>
<rect x="1815.5" y="468.5" width="8" height="188" fill="#4A4A4B"/>
<rect x="1821.5" y="468.5" width="2" height="181.971" fill="#939393"/>
<rect x="1541.5" y="468.5" width="2" height="181.971" fill="#939393"/>
<path d="M1231.8 450.131L1231.8 1L1679.29 365L1663.26 452.132L1231.8 450.131Z" fill="white"/>
<rect x="1664" y="451.663" width="88" height="4" transform="rotate(-80 1664 451.663)" fill="#939393"/>
<rect x="1575.5" y="448" width="88" height="4" fill="#939393"/>
<rect x="2191.5" y="447.944" width="88" height="8" fill="#939393"/>
<rect x="2143.5" y="456.5" width="304" height="12" fill="#4A4A4B"/>
<rect x="2287.5" y="456.5" width="159" height="4" fill="#939393"/>
<rect x="2443.5" y="456.5" width="4" height="12" fill="#939393"/>
<rect x="2151.5" y="468.5" width="8" height="188" fill="#4A4A4B"/>
<rect x="2431.5" y="468.5" width="8" height="188" fill="#4A4A4B"/>
<rect x="2437.5" y="468.5" width="2" height="181.971" fill="#939393"/>
<rect x="2157.5" y="468.5" width="2" height="181.971" fill="#939393"/>
<path d="M1847.8 450.131L1847.8 1L2265.09 366.394L2279.26 452.132L1847.8 450.131Z" fill="white"/>
<rect x="2280.28" y="452.358" width="88" height="4" transform="rotate(-100 2280.28 452.358)" fill="#939393"/>
<rect x="2191.5" y="448" width="88" height="4" fill="#939393"/>
<rect x="2807.5" y="447.944" width="88" height="8" fill="#939393"/>
<rect x="2759.5" y="456.5" width="304" height="12" fill="#4A4A4B"/>
<rect x="2903.5" y="456.5" width="159" height="4" fill="#939393"/>
<rect x="3059.5" y="456.5" width="4" height="12" fill="#939393"/>
<rect x="2767.5" y="468.5" width="8" height="188" fill="#4A4A4B"/>
<rect x="3047.5" y="468.5" width="8" height="188" fill="#4A4A4B"/>
<rect x="3053.5" y="468.5" width="2" height="181.971" fill="#939393"/>
<rect x="2773.5" y="468.5" width="2" height="181.971" fill="#939393"/>
<path d="M2463.8 450.131L2463.8 1L2853.46 375.985L2895.26 452.132L2463.8 450.131Z" fill="white"/>
<rect x="2897" y="452.21" width="88" height="4" transform="rotate(-120 2897 452.21)" fill="#939393"/>
<rect x="2807.5" y="448" width="88" height="4" fill="#939393"/>
<rect x="3423.5" y="447.944" width="88" height="8" fill="#939393"/>
<rect x="3375.5" y="456.5" width="304" height="12" fill="#4A4A4B"/>
<rect x="3519.5" y="456.5" width="159" height="4" fill="#939393"/>
<rect x="3675.5" y="456.5" width="4" height="12" fill="#939393"/>
<rect x="3383.5" y="468.5" width="8" height="188" fill="#4A4A4B"/>
<rect x="3663.5" y="468.5" width="8" height="188" fill="#4A4A4B"/>
<rect x="3669.5" y="468.5" width="2" height="181.971" fill="#939393"/>
<rect x="3389.5" y="468.5" width="2" height="181.971" fill="#939393"/>
<path d="M3079.8 450.131L3079.8 1L3445.33 394.545L3511.26 452.132L3079.8 450.131Z" fill="white"/>
<rect x="3512.41" y="451.63" width="88" height="4" transform="rotate(-140 3512.41 451.63)" fill="#939393"/>
<rect x="3423.5" y="448" width="88" height="4" fill="#939393"/>
<rect x="4039.5" y="447.944" width="88" height="8" fill="#939393"/>
<rect x="3991.5" y="456.5" width="304" height="12" fill="#4A4A4B"/>
<rect x="4135.5" y="456.5" width="159" height="4" fill="#939393"/>
<rect x="4291.5" y="456.5" width="4" height="12" fill="#939393"/>
<rect x="3999.5" y="468.5" width="8" height="188" fill="#4A4A4B"/>
<rect x="4279.5" y="468.5" width="8" height="188" fill="#4A4A4B"/>
<rect x="4285.5" y="468.5" width="2" height="181.971" fill="#939393"/>
<rect x="4005.5" y="468.5" width="2" height="181.971" fill="#939393"/>
<path d="M3693.75 449.355L3693.75 0.223511L4046.05 421.336L4125.22 451.355L3693.75 449.355Z" fill="white"/>
<rect x="4127.69" y="451.857" width="88" height="4" transform="rotate(-160 4127.69 451.857)" fill="#939393"/>
<rect x="4039.5" y="448" width="88" height="4" fill="#939393"/>
<rect x="4655.5" y="447.944" width="88" height="8" fill="#939393"/>
<rect x="4607.5" y="456.5" width="304" height="12" fill="#4A4A4B"/>
<rect x="4751.5" y="456.5" width="159" height="4" fill="#939393"/>
<rect x="4907.5" y="456.5" width="4" height="12" fill="#939393"/>
<rect x="4615.5" y="468.5" width="8" height="188" fill="#4A4A4B"/>
<rect x="4895.5" y="468.5" width="8" height="188" fill="#4A4A4B"/>
<rect x="4655.5" y="444" width="88" height="4" fill="#939393"/>
<rect x="4901.5" y="468.5" width="2" height="181.971" fill="#939393"/>
<rect x="4621.5" y="468.5" width="2" height="181.971" fill="#939393"/>
<rect x="5271.5" y="447.944" width="88" height="8" fill="#939393"/>
<rect x="5223.5" y="456.5" width="304" height="12" fill="#4A4A4B"/>
<rect x="5367.5" y="456.5" width="159" height="4" fill="#939393"/>
<rect x="5523.5" y="456.5" width="4" height="12" fill="#939393"/>
<rect x="5231.5" y="468.5" width="8" height="188" fill="#4A4A4B"/>
<rect x="5511.5" y="468.5" width="8" height="188" fill="#4A4A4B"/>
<rect x="5271.5" y="444" width="88" height="4" fill="#939393"/>
<rect x="5517.5" y="468.5" width="2" height="181.971" fill="#939393"/>
<rect x="5237.5" y="468.5" width="2" height="181.971" fill="#939393"/>
</svg>
